<svg width="32" height="33" viewBox="0 0 32 33" fill="none" xmlns="http://www.w3.org/2000/svg">
<circle cx="16" cy="16" r="16" fill="#EC7160"/>
<path d="M15.4805 8.21484C15.6055 8.75391 15.7305 9.34375 15.8555 9.98438C15.9805 10.625 16.1016 11.293 16.2188 11.9883C16.3438 12.6758 16.4648 13.3789 16.582 14.0977C16.707 14.8086 16.8281 15.5117 16.9453 16.207C17.0703 16.8945 17.1875 17.5625 17.2969 18.2109C17.4141 18.8516 17.5312 19.4453 17.6484 19.9922C18.4375 18.4375 19.1953 16.9648 19.9219 15.5742C20.6562 14.1836 21.3398 12.9375 21.9727 11.8359C22.6055 10.7266 23.1797 9.78516 23.6953 9.01172C24.2109 8.23047 24.6562 7.67188 25.0312 7.33594C25.1953 7.17969 25.3672 7.07031 25.5469 7.00781C25.7266 6.94531 25.9023 6.91406 26.0742 6.91406C26.3242 6.91406 26.5352 6.97656 26.707 7.10156C26.8867 7.22656 26.9766 7.38672 26.9766 7.58203C26.9766 7.69922 26.957 7.79687 26.918 7.875C26.8789 7.95313 26.8164 8.03906 26.7305 8.13281C26.4102 8.5 26.1094 8.83984 25.8281 9.15234C25.5469 9.45703 25.2695 9.78125 24.9961 10.125C24.7305 10.4609 24.4609 10.8398 24.1875 11.2617C23.9219 11.6836 23.6445 12.1875 23.3555 12.7734C23.0039 13.4219 22.6523 14.0898 22.3008 14.7773C21.9492 15.457 21.6094 16.1367 21.2812 16.8164C20.9531 17.4883 20.6367 18.1406 20.332 18.7734C20.0352 19.4062 19.7617 19.9922 19.5117 20.5312C19.2617 21.0625 19.0352 21.5391 18.832 21.9609C18.6289 22.375 18.4609 22.6992 18.3281 22.9336C18.1016 23.418 17.8398 23.7773 17.543 24.0117C17.2539 24.2461 16.9883 24.3672 16.7461 24.375H16.6641C16.5078 24.3672 16.3555 24.3359 16.207 24.2812C16.0586 24.2266 15.9219 24.1445 15.7969 24.0352C15.6719 23.9258 15.5625 23.7891 15.4688 23.625C15.3828 23.4531 15.3242 23.2539 15.293 23.0273C15.168 22.5352 15.0547 22.0547 14.9531 21.5859C14.8594 21.1094 14.7695 20.625 14.6836 20.1328C14.5977 19.6328 14.5078 19.1133 14.4141 18.5742C14.3281 18.0273 14.2344 17.4336 14.1328 16.793C14.0312 16.1523 13.9141 15.4531 13.7812 14.6953C13.6562 13.9375 13.5078 13.0977 13.3359 12.1758C13.1016 12.957 12.8164 13.8164 12.4805 14.7539C12.1445 15.6836 11.7734 16.625 11.3672 17.5781C10.9609 18.5234 10.5234 19.4414 10.0547 20.332C9.58594 21.2148 9.09375 22 8.57812 22.6875C8.0625 23.375 7.53125 23.9258 6.98438 24.3398C6.44531 24.7539 5.90234 24.9609 5.35547 24.9609C5.26172 24.9609 5.15234 24.9375 5.02734 24.8906C4.90234 24.8516 4.78125 24.7891 4.66406 24.7031C4.55469 24.625 4.46094 24.5273 4.38281 24.4102C4.30469 24.293 4.26562 24.1641 4.26562 24.0234C4.26562 23.9141 4.28516 23.8164 4.32422 23.7305C4.37109 23.6367 4.43359 23.5273 4.51172 23.4023C4.61328 23.2383 4.77344 23.0977 4.99219 22.9805C5.21094 22.8555 5.46094 22.7188 5.74219 22.5703C6.03125 22.4219 6.34375 22.25 6.67969 22.0547C7.01562 21.8516 7.35156 21.5859 7.6875 21.2578C7.875 21.0781 8.09766 20.7578 8.35547 20.2969C8.61328 19.8281 8.89062 19.2773 9.1875 18.6445C9.49219 18.0039 9.80469 17.3047 10.125 16.5469C10.4531 15.7812 10.7734 15.0117 11.0859 14.2383C11.3984 13.4648 11.6953 12.7109 11.9766 11.9766C12.2578 11.2344 12.5078 10.5703 12.7266 9.98438C12.9531 9.39062 13.1367 8.89844 13.2773 8.50781C13.418 8.10938 13.5039 7.86719 13.5352 7.78125C13.6133 7.54688 13.7383 7.375 13.9102 7.26562C14.0898 7.15625 14.2812 7.09766 14.4844 7.08984C14.4766 7.08984 14.4688 7.09375 14.4609 7.10156C14.4844 7.10156 14.5078 7.10156 14.5312 7.10156C14.5625 7.09375 14.5898 7.08984 14.6133 7.08984C14.7852 7.08984 14.9531 7.17578 15.1172 7.34766C15.2891 7.51172 15.4102 7.80078 15.4805 8.21484Z" fill="white"/>
</svg>
